Coordinates
version=1
nRows=23
nColumns=30
inDegrees=yes

Units are S.I. units (second, meters, Newtons, ...)
Angles are in degrees.

endheader
time	floatyaw	floatroll	floatpitch	floatx	floaty	floatz	pro_sup_l	deviation_l	flexion_l	cmc_flexion_l	cmc_abduction_l	mp_flexion_l	ip_flexion_l	2mcp_flexion_l	2mcp_abduction_l	2pm_flexion_l	2md_flexion_l	3mcp_flexion_l	3mcp_abduction_l	3pm_flexion_l	3md_flexion_l	4mcp_flexion_l	4mcp_abduction_l	4pm_flexion_l	4md_flexion_l	5mcp_flexion_l	5mcp_abduction_l	5pm_flexion_l	5md_flexion_l
-0.995000	-160.147433	-5.066637	-73.570646	0.071359	-0.177557	-0.025939	94.063806	-0.754018	-1.525917	14.336196	-1.018164	-25.191460	-40.877800	31.656511	7.182924	41.867836	29.717934	26.126973	4.260905	43.662934	29.379815	15.345152	-4.534189	51.868710	36.481320	0.540290	-8.098200	62.456981	43.624802
-0.985000	-160.147433	-5.066637	-73.570646	0.071353	-0.177573	-0.025939	94.051610	-0.756972	-1.529416	14.337796	-0.992727	-25.213454	-40.890566	31.666819	7.178872	41.892658	29.737648	26.120035	4.258309	43.688584	29.403501	15.340932	-4.533403	51.868879	36.486364	0.529671	-8.096229	62.464955	43.636015
-0.975000	-160.147433	-5.066637	-73.570646	0.071345	-0.177589	-0.025942	94.038796	-0.759272	-1.532234	14.339355	-0.987594	-25.230074	-40.908000	31.677836	7.174087	41.915161	29.758029	26.115636	4.256026	43.704235	29.421310	15.332406	-4.532953	51.874281	36.499338	0.513932	-8.095113	62.479462	43.652076
-0.965000	-160.147433	-5.066637	-73.570646	0.071338	-0.177600	-0.025946	94.026684	-0.760814	-1.533938	14.335618	-1.000816	-25.234457	-40.920024	31.686243	7.170558	41.935249	29.771529	26.113098	4.254337	43.712470	29.430120	15.321172	-4.533799	51.886241	36.512737	0.496097	-8.095125	62.499789	43.666711
-0.955000	-160.147433	-5.066637	-73.570646	0.071332	-0.177605	-0.025948	94.016931	-0.761355	-1.534010	14.323427	-1.022372	-25.224898	-40.919656	31.687746	7.171089	41.954289	29.775621	26.109122	4.253240	43.722166	29.433319	15.309714	-4.535980	51.903742	36.521657	0.481132	-8.096447	62.522636	43.675313
-0.945000	-160.147433	-5.066637	-73.570646	0.071329	-0.177606	-0.025946	94.010897	-0.760862	-1.531613	14.302210	-1.042218	-25.204458	-40.905469	31.679999	7.177631	41.972786	29.772231	26.100232	4.252667	43.741809	29.437210	15.300148	-4.538526	51.923425	36.525132	0.473219	-8.098951	62.543374	43.676198
-0.935000	-160.147433	-5.066637	-73.570646	0.071330	-0.177604	-0.025938	94.009082	-0.759525	-1.525545	14.273734	-1.056485	-25.178110	-40.880625	31.664077	7.189771	41.989103	29.765548	26.084860	4.252608	43.773450	29.446461	15.293027	-4.539961	51.940383	36.525317	0.473336	-8.102312	62.557762	43.670731
-0.925000	-160.147433	-5.066637	-73.570646	0.071333	-0.177601	-0.025926	94.010878	-0.757529	-1.514744	14.241460	-1.067691	-25.150191	-40.850186	31.643800	7.204523	42.000420	29.759797	26.064129	4.253039	43.811428	29.461583	15.287205	-4.539076	51.949831	36.525328	0.478938	-8.106280	62.563397	43.662168
-0.915000	-160.147433	-5.066637	-73.570646	0.071339	-0.177598	-0.025910	94.014755	-0.754905	-1.499217	14.209696	-1.079927	-25.123952	-40.819034	31.623709	7.217742	42.004971	29.757801	26.041288	4.253749	43.846356	29.479491	15.280968	-4.535560	51.949149	36.527087	0.485980	-8.110762	62.560333	43.653657
-0.905000	-160.147433	-5.066637	-73.570646	0.071347	-0.177594	-0.025894	94.018882	-0.751613	-1.480644	14.182598	-1.093950	-25.102642	-40.791356	31.607260	7.226218	42.003371	29.760280	26.020406	4.254253	43.870861	29.495875	15.273513	-4.530154	51.939170	36.530319	0.491575	-8.115606	62.550780	43.646515
-0.895000	-160.147433	-5.066637	-73.570646	0.071355	-0.177589	-0.025880	94.021923	-0.747738	-1.462072	14.163162	-1.106631	-25.090196	-40.771168	31.596212	7.229059	41.997801	29.765705	26.005075	4.253942	43.882728	29.507256	15.265548	-4.524294	51.923726	36.533026	0.495087	-8.120252	62.538251	43.639975
-0.885000	-160.147433	-5.066637	-73.570646	0.071362	-0.177582	-0.025870	94.023512	-0.743607	-1.446777	14.152585	-1.114574	-25.090327	-40.762546	31.591057	7.227554	41.990012	29.771031	25.997552	4.252377	43.883918	29.511767	15.258606	-4.519445	51.907565	36.533021	0.497045	-8.123606	62.526530	43.632545
-0.875000	-160.147433	-5.066637	-73.570646	0.071367	-0.177574	-0.025866	94.024068	-0.739779	-1.437031	14.150268	-1.117656	-25.104472	-40.768713	31.591608	7.223895	41.980256	29.773538	25.998309	4.249541	43.877585	29.509305	15.253843	-4.516496	51.894007	36.529663	0.497332	-8.124341	62.518634	43.623914
-0.865000	-160.147433	-5.066637	-73.570646	0.071370	-0.177566	-0.025868	94.024079	-0.736907	-1.433435	14.154362	-1.118792	-25.130204	-40.790176	31.597034	7.219841	41.968236	29.773007	26.005908	4.245881	43.866190	29.501746	15.251380	-4.515520	51.883909	36.524733	0.494681	-8.121495	62.515786	43.615787
-0.855000	-160.147433	-5.066637	-73.570646	0.071373	-0.177562	-0.025875	94.023546	-0.735512	-1.434962	14.162444	-1.120390	-25.161462	-40.823315	31.605542	7.216136	41.954945	29.772509	26.017299	4.242133	43.851703	29.492865	15.250588	-4.515951	51.876342	36.521720	0.487976	-8.114927	62.516667	43.610843
-0.845000	-160.147433	-5.066637	-73.570646	0.071374	-0.177561	-0.025883	94.022085	-0.735706	-1.439479	14.172014	-1.121243	-25.190803	-40.860908	31.614472	7.212770	41.943336	29.776642	26.028758	4.239025	43.836530	29.487092	15.250869	-4.517011	51.870090	36.523680	0.478005	-8.105318	62.517469	43.610548
-0.835000	-160.147433	-5.066637	-73.570646	0.071376	-0.177563	-0.025888	94.019533	-0.737068	-1.444455	14.180838	-1.116994	-25.212512	-40.894945	31.621269	7.209553	41.936829	29.788080	26.037314	4.237025	43.823387	29.487198	15.252182	-4.518096	51.864660	36.530992	0.467838	-8.093808	62.513270	43.613633
-0.825000	-160.147433	-5.066637	-73.570646	0.071377	-0.177566	-0.025890	94.016368	-0.738842	-1.447720	14.187328	-1.103853	-25.224779	-40.920263	31.624804	7.206511	41.936835	29.804963	26.042014	4.236218	43.813940	29.492405	15.254910	-4.518956	51.860319	36.540715	0.461246	-8.081619	62.500525	43.616636
-0.815000	-160.147433	-5.066637	-73.570646	0.071377	-0.177568	-0.025887	94.013521	-0.740373	-1.448113	14.190922	-1.082382	-25.229804	-40.936717	31.625991	7.203930	41.941497	29.821311	26.044215	4.236352	43.807705	29.498568	15.259260	-4.519676	51.857624	36.548221	0.460362	-8.069940	62.479488	43.616261
-0.805000	-160.147433	-5.066637	-73.570646	0.071377	-0.177566	-0.025882	94.011688	-0.741484	-1.445809	14.192127	-1.058222	-25.232019	-40.948392	31.627099	7.202163	41.946908	29.830363	26.046568	4.236987	43.802596	29.500576	15.264673	-4.520534	51.857196	36.550056	0.464369	-8.059962	62.454922	43.611785
-0.795000	-160.147433	-5.066637	-73.570646	0.071376	-0.177563	-0.025877	94.010649	-0.742523	-1.442118	14.191911	-1.039257	-25.235612	-40.960303	31.630249	7.201329	41.949900	29.828494	26.051290	4.237695	43.796828	29.495304	15.269670	-4.521807	51.859775	36.545953	0.469986	-8.052804	62.434410	43.605756
-0.785000	-160.147433	-5.066637	-73.570646	0.071374	-0.177558	-0.025874	94.009087	-0.744061	-1.438763	14.190641	-1.031523	-25.242528	-40.974656	31.636193	7.201079	41.950118	29.816992	26.058861	4.238181	43.790414	29.483046	15.272335	-4.523574	51.866022	36.538599	0.473199	-8.049256	62.425024	43.602523
-0.775000	-160.147433	-5.066637	-73.570646	0.071373	-0.177555	-0.025873	94.005163	-0.746431	-1.437014	14.187259	-1.036727	-25.251555	-40.989022	31.644242	7.200601	41.949741	29.800707	26.067959	4.238300	43.784981	29.466774	15.271302	-4.525587	51.875818	36.531535	0.471221	-8.049484	62.430175	43.605577
